<svg xmlns="http://www.w3.org/2000/svg" viewBox="0 0 316.81 100.73"><defs><style>.cls-1{font-size:72px;fill:#3e3a39;font-family:karakaze-M-83pv-RKSJ-H, karakazeM;letter-spacing:-0.1em;}.cls-2{letter-spacing:0.15em;}.cls-3{fill:#497134;}</style></defs><title>アセット 1</title><g id="レイヤー_2" data-name="レイヤー 2"><g id="レイヤー_1-2" data-name="レイヤー 1"><text class="cls-1" transform="translate(0 57.6)">なが<tspan class="cls-2" x="115.2" y="0">の</tspan><tspan x="190.8" y="0">cake</tspan></text><path class="cls-3" d="M114.63,81.41a50.63,50.63,0,0,1-44.89-3.49.36.36,0,0,0-.37.62c13.59,8.08,30.79,9.68,45.45,3.57.42-.18.24-.88-.19-.7Z"/><path class="cls-3" d="M114.53,81.23a21.83,21.83,0,0,1-9.87-2c-1.49-.63-2.94-1.34-4.4-2l-2.05-1c-.41-.2-.79-.45-1.18-.08-.69.66-.29,1.89.07,2.56a7.74,7.74,0,0,0,2.16,2.56,11,11,0,0,0,6.36,1.89,35.45,35.45,0,0,0,4.25-.16c.7-.06,1.43-.07,2.12-.18a15,15,0,0,0,2.76-.86c.43-.15.24-.85-.19-.69-.64.23-1.27.49-1.92.67a11.07,11.07,0,0,1-2.22.29c-1.08.1-2.16.18-3.24.21a13.41,13.41,0,0,1-6.33-1,7,7,0,0,1-2.47-2,6.44,6.44,0,0,1-.88-1.47,1.61,1.61,0,0,1-.09-.69c0-.45,0-.5.44-.37a32.72,32.72,0,0,1,3.73,1.79c1.2.58,2.41,1.14,3.64,1.63a21.58,21.58,0,0,0,9.31,1.7c.46,0,.46-.75,0-.72Z"/><path class="cls-3" d="M109.69,83.71c-3.83,1.62-6.64,4.61-9.55,7.48-3.33,3.29-7,5.9-11.64,6.88-.81.18-2.63.82-1.54,2a3.8,3.8,0,0,0,2.06.61,12.4,12.4,0,0,0,3.22,0c4-.54,7.91-2.75,11-5.24a17.46,17.46,0,0,0,4.39-5.28,45,45,0,0,1,3.77-6.53c.23-.29-.07-.83-.44-.57l-1.24.9c-.37.27,0,.9.36.63l1.25-.9-.44-.57c-2.2,2.76-3.23,6.21-5.37,9a23.1,23.1,0,0,1-9.37,6.69,14.37,14.37,0,0,1-6,1.25,5,5,0,0,1-1.89-.22c-.41-.22-.47.14-.36-.49s0-.26.36-.44a5.92,5.92,0,0,1,1.21-.27c.53-.13,1.06-.29,1.58-.46a23.79,23.79,0,0,0,8.67-5.54c3.14-3,6-6.44,10.13-8.17.42-.18.23-.88-.19-.7Z"/><path class="cls-3" d="M94.27,85.56c-.92,1.37-1.82,2.75-2.72,4.13L90.2,91.81c-.21.34-.46.67-.65,1a.84.84,0,0,0-.11.69c.27.77,1.09,0,1.44-.23a21,21,0,0,0,1.68-1.45A10.87,10.87,0,0,0,95,88.36a5.68,5.68,0,0,0,.54-2.14.7.7,0,0,0-.46-.69.57.57,0,0,0-.69.28c-.2.42.42.78.62.36l-.19,0v.11a2.06,2.06,0,0,0,0,.26c0,.17-.07.34-.11.51a8.09,8.09,0,0,1-.37,1.08A8.9,8.9,0,0,1,93.22,90a12.41,12.41,0,0,1-1.52,1.64q-.44.4-.9.78l-.43.34c-.16.13-.37.35-.57.38l.28,0c0,.1.07.09.09,0l.17-.26c.1-.17.21-.34.32-.51l.57-.9c.4-.62.8-1.24,1.19-1.86q1.23-1.87,2.47-3.74c.26-.39-.36-.75-.62-.37Z"/><path class="cls-3" d="M100.75,85c-2-3.21-5.92-4.08-8.7-6.43a15.48,15.48,0,0,1-4.92-9.34l-.6.35c5.07,5.13,9.81,10.53,14.45,16,.3.36.81-.15.51-.51C96.85,79.56,92.11,74.16,87,69a.36.36,0,0,0-.6.35A16.32,16.32,0,0,0,91,78.54c2.75,2.64,7,3.46,9.14,6.79.25.39.87,0,.62-.37Z"/><path class="cls-3" d="M87.47,84.39,68.22,86.58c-.28,0-.52.39-.26.61,1.31,1.12,3.17,1.29,4.81,1.57a14.8,14.8,0,0,0,5.78,0,9.35,9.35,0,0,0,4.18-2.42,3.16,3.16,0,0,1,2.74-.68,2.37,2.37,0,0,0,1.81-.45c.36-.29-.15-.79-.51-.51-.7.55-1.74.1-2.54.16a2.85,2.85,0,0,0-1.41.49c-.56.37-1,.9-1.52,1.32A6.61,6.61,0,0,1,78.94,88a12.33,12.33,0,0,1-5.44.19c-1.6-.24-3.75-.37-5-1.47l-.25.62,19.25-2.19c.46,0,.46-.77,0-.72Z"/><path class="cls-3" d="M85.31,83.91a53,53,0,0,1-5.46-5,24.69,24.69,0,0,1-3.57-6.25c-1.64-3.7-3.38-7.66-7.07-9.74l-.18.68a9.74,9.74,0,0,1,5.85,3.59,36.94,36.94,0,0,1,4.3,6,61.69,61.69,0,0,1,3.21,6.27c.84,1.85,1.45,4.09,3.09,5.42.36.29.87-.22.51-.51-1.82-1.47-2.49-4.26-3.45-6.31a58.88,58.88,0,0,0-3.73-6.85c-2.28-3.51-5.3-7.78-9.78-8.34-.37,0-.48.5-.18.67,3.92,2.2,5.49,6.61,7.26,10.48a22.17,22.17,0,0,0,3.23,5.39,54.14,54.14,0,0,0,5.46,5c.34.3.86-.2.51-.51Z"/><path class="cls-3" d="M69.57,77.9A26.73,26.73,0,0,0,62,68.23c-3.51-2.8-7.74-4.53-11.28-7.29a.36.36,0,0,0-.51.51c5.34,6.77,11.05,13.81,19.39,16.88.44.16.63-.53.2-.69-8.22-3-13.84-10-19.08-16.7l-.51.51c3.4,2.66,7.42,4.36,10.86,7A26.22,26.22,0,0,1,69,78.26c.2.42.82,0,.62-.36Z"/><path class="cls-3" d="M55.22,66.49A50.56,50.56,0,0,1,47.62,63c-.25-.14-.65.1-.53.41,1.56,4.08,5.26,6.63,8.68,9.08,4,2.89,8.45,5.63,13.58,5.45.46,0,.46-.74,0-.72-4.86.17-9.07-2.39-12.89-5.12-3.34-2.38-7.14-4.88-8.68-8.88l-.52.41A52.33,52.33,0,0,0,55,67.19c.43.15.62-.54.19-.7Z"/><path class="cls-3" d="M68.86,77.84c-8.68,4.53-15.73-3.25-23.08-6.66l-.18.67A34.61,34.61,0,0,1,56.72,73.3a.36.36,0,0,0,.19-.7A35.15,35.15,0,0,0,45.6,71.13c-.33,0-.53.51-.18.67,4.14,1.92,7.64,5,11.84,6.79a13.57,13.57,0,0,0,12-.13c.41-.21,0-.84-.37-.62Z"/><path class="cls-3" d="M70.16,78.06a11.8,11.8,0,0,0-1.65-8.36,14.57,14.57,0,0,0-3.07-3.25c-1.38-1.13-2.9-2.42-3.07-4.32l-.54.31c2.92,1.69,5.91,3.55,7.75,6.47,1.71,2.71,2.17,6.38,0,9-.3.35.21.86.5.5a8.25,8.25,0,0,0,.49-9.19c-1.82-3.39-5.17-5.52-8.41-7.4a.36.36,0,0,0-.54.31c.29,3.24,3.52,4.59,5.41,6.81a11,11,0,0,1,2.41,8.92c-.08.46.61.65.69.2Z"/><path class="cls-3" d="M78,82c-5-2.58-10.73.2-15.9-1.58-.33-.11-.63.38-.35.6A16.16,16.16,0,0,0,78.43,83c.42-.2.06-.82-.36-.63a15.37,15.37,0,0,1-15.81-1.82l-.35.61c5.1,1.75,10.82-1,15.72,1.5.41.22.78-.4.37-.62Z"/><path class="cls-3" d="M90.78,84.84C83.43,87.73,75.19,95,66.89,90.94v.62a27.4,27.4,0,0,1,6.72-2.47c.46-.1.26-.79-.19-.69a27.84,27.84,0,0,0-6.89,2.54.36.36,0,0,0,0,.62c8.59,4.18,16.82-3,24.44-6,.43-.17.24-.87-.19-.7Z"/><path class="cls-3" d="M156.83,78.45A50.67,50.67,0,0,1,111.94,75a.36.36,0,0,0-.36.62c13.58,8.08,30.79,9.68,45.44,3.57.42-.18.24-.88-.19-.7Z"/><path class="cls-3" d="M156.73,78.27a21.83,21.83,0,0,1-9.87-2c-1.49-.63-2.94-1.35-4.39-2-.68-.33-1.37-.67-2.05-1-.42-.2-.79-.45-1.18-.08-.7.65-.3,1.88.06,2.56a7.89,7.89,0,0,0,2.17,2.56,11,11,0,0,0,6.35,1.89,35.45,35.45,0,0,0,4.25-.16c.71-.06,1.43-.07,2.13-.18A14.86,14.86,0,0,0,157,79c.43-.16.25-.85-.19-.7-.64.23-1.27.49-1.92.68a11,11,0,0,1-2.22.29c-1.07.1-2.15.18-3.24.21a13.43,13.43,0,0,1-6.33-1,7,7,0,0,1-2.47-2,6.06,6.06,0,0,1-.87-1.47,1.36,1.36,0,0,1-.09-.69c0-.45,0-.5.43-.37a31.12,31.12,0,0,1,3.73,1.79c1.2.58,2.41,1.13,3.65,1.63a21.53,21.53,0,0,0,9.3,1.7c.46,0,.46-.75,0-.72Z"/><path class="cls-3" d="M151.89,80.75c-3.83,1.61-6.64,4.61-9.54,7.48-3.33,3.29-7,5.9-11.64,6.88-.82.17-2.64.82-1.55,2a3.82,3.82,0,0,0,2.06.61,12.4,12.4,0,0,0,3.22,0c4-.54,7.91-2.76,11-5.24a17.64,17.64,0,0,0,4.4-5.28,45,45,0,0,1,3.76-6.53c.24-.29-.07-.83-.43-.57l-1.25.9c-.37.27,0,.9.37.62l1.24-.9-.44-.56c-2.2,2.76-3.23,6.21-5.37,9a23.06,23.06,0,0,1-9.36,6.69,14.45,14.45,0,0,1-6,1.25,4.82,4.82,0,0,1-1.89-.23c-.4-.21-.46.15-.36-.48s0-.26.36-.44a5.92,5.92,0,0,1,1.21-.27c.53-.13,1.06-.29,1.58-.46A23.79,23.79,0,0,0,142,89.62c3.14-3,6-6.45,10.13-8.17.42-.18.24-.88-.19-.7Z"/><path class="cls-3" d="M136.47,82.6c-.91,1.37-1.82,2.75-2.71,4.13-.46.71-.91,1.41-1.35,2.12-.22.34-.46.67-.65,1a.92.92,0,0,0-.12.7c.27.77,1.09.05,1.44-.23.58-.46,1.15-.94,1.68-1.45a10.72,10.72,0,0,0,2.47-3.49,5.54,5.54,0,0,0,.54-2.14.71.71,0,0,0-.45-.69.57.57,0,0,0-.7.28c-.2.42.43.78.62.36l-.19.05v.1a1.26,1.26,0,0,0,0,.27c0,.17-.07.34-.11.51a7.25,7.25,0,0,1-.37,1.08,9.61,9.61,0,0,1-1.1,1.85,13.21,13.21,0,0,1-1.53,1.64c-.29.27-.59.52-.89.77l-.44.35c-.16.12-.36.35-.57.38l.28,0c0,.09.08.09.1,0l.16-.26c.11-.17.22-.34.32-.51s.38-.6.58-.9c.39-.62.79-1.24,1.19-1.86q1.22-1.87,2.47-3.75c.25-.38-.37-.74-.63-.36Z"/><path class="cls-3" d="M143,82c-2-3.22-5.92-4.08-8.7-6.43a15.4,15.4,0,0,1-4.92-9.34l-.61.35c5.07,5.13,9.81,10.52,14.45,16,.3.36.81-.16.51-.51-4.64-5.52-9.38-10.91-14.45-16-.27-.28-.65,0-.6.35a16.37,16.37,0,0,0,4.56,9.16c2.74,2.64,7,3.46,9.14,6.78.24.4.87,0,.62-.36Z"/><path class="cls-3" d="M129.68,81.43l-19.26,2.19c-.28,0-.52.39-.26.61,1.32,1.12,3.18,1.29,4.81,1.57a14.8,14.8,0,0,0,5.78,0,9.3,9.3,0,0,0,4.18-2.42,3.2,3.2,0,0,1,2.74-.69,2.33,2.33,0,0,0,1.81-.44c.37-.29-.15-.8-.51-.51-.7.55-1.74.1-2.53.16a2.88,2.88,0,0,0-1.42.49,18.9,18.9,0,0,0-1.52,1.32A6.61,6.61,0,0,1,121.14,85a12.29,12.29,0,0,1-5.43.19c-1.6-.24-3.75-.38-5-1.47l-.25.62,19.26-2.19c.45-.05.46-.77,0-.72Z"/><path class="cls-3" d="M127.51,81a53,53,0,0,1-5.45-5,24.72,24.72,0,0,1-3.58-6.25c-1.64-3.7-3.38-7.66-7.07-9.74l-.18.67a9.81,9.81,0,0,1,5.85,3.59,37.46,37.46,0,0,1,4.3,6,63.89,63.89,0,0,1,3.22,6.27c.84,1.85,1.44,4.09,3.08,5.42.36.28.87-.22.51-.51-1.82-1.47-2.49-4.26-3.45-6.32A58.08,58.08,0,0,0,121,68.24c-2.27-3.52-5.29-7.79-9.78-8.35-.37,0-.47.51-.18.67,3.92,2.21,5.49,6.61,7.26,10.49a21.83,21.83,0,0,0,3.24,5.38,53,53,0,0,0,5.45,5c.35.3.86-.21.51-.51Z"/><path class="cls-3" d="M111.78,74.93a26.89,26.89,0,0,0-7.55-9.66c-3.52-2.8-7.74-4.53-11.29-7.29a.36.36,0,0,0-.51.51c5.34,6.76,11,13.81,19.4,16.88.43.16.62-.53.19-.69-8.21-3-13.83-10.05-19.08-16.7l-.51.51c3.41,2.65,7.43,4.35,10.86,7a26.15,26.15,0,0,1,7.87,9.85c.19.42.81,0,.62-.37Z"/><path class="cls-3" d="M97.42,63.53a51.57,51.57,0,0,1-7.6-3.47c-.25-.14-.64.1-.53.41,1.57,4.08,5.27,6.63,8.69,9.08,4,2.89,8.44,5.63,13.57,5.45.46,0,.47-.74,0-.72-4.86.17-9.07-2.4-12.89-5.12-3.34-2.38-7.14-4.88-8.67-8.88l-.53.41a52.75,52.75,0,0,0,7.77,3.53c.44.16.63-.53.19-.69Z"/><path class="cls-3" d="M111.07,74.88c-8.69,4.53-15.74-3.25-23.09-6.67l-.18.68a34.91,34.91,0,0,1,11.13,1.44c.44.14.63-.56.19-.69A35.25,35.25,0,0,0,87.8,68.17c-.33,0-.52.51-.18.67,4.14,1.92,7.65,5,11.84,6.79a13.57,13.57,0,0,0,12-.13c.41-.22,0-.84-.36-.62Z"/><path class="cls-3" d="M112.36,75.09a11.74,11.74,0,0,0-1.65-8.35,14.14,14.14,0,0,0-3.07-3.25c-1.38-1.13-2.89-2.42-3.06-4.32l-.55.31C107,61.17,110,63,111.79,66c1.71,2.7,2.16,6.38,0,9-.29.36.21.87.51.51a8.27,8.27,0,0,0,.49-9.19c-1.83-3.39-5.17-5.52-8.41-7.4a.37.37,0,0,0-.55.31c.3,3.24,3.52,4.59,5.41,6.81a11,11,0,0,1,2.41,8.92c-.08.46.62.65.69.19Z"/><path class="cls-3" d="M120.2,79.07c-5-2.58-10.73.2-15.9-1.58-.32-.11-.63.38-.35.6A16.16,16.16,0,0,0,120.64,80c.42-.19,0-.81-.37-.62a15.42,15.42,0,0,1-15.81-1.82l-.35.6c5.1,1.76,10.82-1,15.73,1.51.41.21.77-.41.36-.62Z"/><path class="cls-3" d="M133,81.88C125.63,84.77,117.39,92,109.1,88v.62a27.25,27.25,0,0,1,6.72-2.47c.45-.1.26-.79-.2-.69A28,28,0,0,0,108.73,88a.36.36,0,0,0,0,.62c8.59,4.18,16.83-3,24.44-6,.43-.17.25-.87-.19-.7Z"/><path class="cls-3" d="M198,81.81c14.69,6,31.89,4.34,45.43-3.8.4-.24,0-.87-.36-.63a50.65,50.65,0,0,1-44.87,3.73c-.43-.18-.62.52-.2.7Z"/><path class="cls-3" d="M198.26,81.65c5.64.32,10.6-2.27,15.52-4.67.3-.14,1.31-.8,1.51-.54.33.43-.11,1.24-.3,1.6a7.08,7.08,0,0,1-2.26,2.51,11.35,11.35,0,0,1-6.23,1.54c-1.19,0-2.39-.06-3.58-.15a18.67,18.67,0,0,1-2.36-.23,17.65,17.65,0,0,1-2.33-.77c-.44-.15-.63.55-.2.7a21.86,21.86,0,0,0,2.2.74,15.33,15.33,0,0,0,2.25.24c1.22.1,2.46.19,3.69.19a12.85,12.85,0,0,0,6.67-1.47c1.52-.93,3.91-3.26,3.09-5.25-.46-1.11-1.68-.14-2.38.21-1.44.7-2.87,1.42-4.33,2.09a23.14,23.14,0,0,1-11,2.54c-.47,0-.46.69,0,.72Z"/><path class="cls-3" d="M202.92,84.08c3.57,1.48,6.25,4.29,9,7a27.31,27.31,0,0,0,8.56,6.16,20.36,20.36,0,0,0,2.53.86c.4.11.8.2,1.21.28a2.07,2.07,0,0,1,.55.11c.21,0,.29.13.22.41.19.29.14.44-.14.43a4.35,4.35,0,0,1-1.89.29,12,12,0,0,1-1.34,0,13.78,13.78,0,0,1-3.36-.65A24.69,24.69,0,0,1,208.46,93c-2.93-3-4-7.1-6.58-10.3l-.44.57,1.25.89c.38.27.74-.36.37-.62l-1.25-.9c-.36-.25-.68.28-.44.57,2.67,3.31,3.75,7.59,6.86,10.58a25.07,25.07,0,0,0,10.6,6,11.57,11.57,0,0,0,6.39.08c1-.33,1.42-1.36.35-2a11.34,11.34,0,0,0-2.41-.6A19.64,19.64,0,0,1,219.59,96a23.44,23.44,0,0,1-5.53-3.9c-3.46-3.18-6.5-6.89-10.95-8.73-.43-.18-.61.52-.19.69Z"/><path class="cls-3" d="M217.91,85.52c.84,1.24,1.67,2.48,2.49,3.74l1.2,1.84c.19.3.38.6.58.9l.32.51.17.26c0,.1.05.11.1,0l.28,0c-.33,0-.71-.47-1-.68s-.61-.5-.9-.76a12.8,12.8,0,0,1-1.56-1.65,8.69,8.69,0,0,1-1.11-1.82,6.85,6.85,0,0,1-.39-1.07l-.12-.51c0-.09,0-.17,0-.26a.49.49,0,0,1,0-.12c0-.09-.05-.13-.19-.1.19.42.82,0,.62-.36s-1-.32-1.12.17a3.59,3.59,0,0,0,.32,1.87A10.08,10.08,0,0,0,219.84,91a16.52,16.52,0,0,0,1.69,1.54l.78.61c.25.19.54.42.86.24.61-.34,0-1.11-.21-1.49q-.65-1-1.32-2-1.53-2.37-3.11-4.69c-.25-.38-.88,0-.62.36Z"/><path class="cls-3" d="M212.67,85c2.08-3.33,6.37-4.19,9.1-6.83a16.42,16.42,0,0,0,4.51-9.19.36.36,0,0,0-.6-.35c-5.05,5.16-9.76,10.58-14.37,16.12-.29.36.21.87.51.51,4.61-5.54,9.32-11,14.37-16.12l-.6-.35a15.45,15.45,0,0,1-4.88,9.37c-2.76,2.37-6.64,3.25-8.66,6.48-.25.39.37.75.62.36Z"/><path class="cls-3" d="M225.33,84.67l19.26,2.09-.25-.62c-1.24,1.07-3.29,1.22-4.85,1.47a12.64,12.64,0,0,1-5.61-.13,6.79,6.79,0,0,1-2.37-1.23c-.49-.4-.91-.87-1.42-1.23a2.81,2.81,0,0,0-1.52-.57c-.8,0-1.84.4-2.54-.14-.36-.29-.87.22-.51.5a2.25,2.25,0,0,0,1.68.46,3.36,3.36,0,0,1,2.78.57,9.84,9.84,0,0,0,4.29,2.49,14.66,14.66,0,0,0,5.6-.06c1.68-.28,3.63-.46,5-1.62.26-.22,0-.58-.26-.61L225.33,84c-.46,0-.46.67,0,.72Z"/><path class="cls-3" d="M228,84a57.38,57.38,0,0,0,5.3-4.92,21.87,21.87,0,0,0,3.34-5.54c1.74-3.88,3.29-8.29,7.2-10.52.29-.17.19-.72-.18-.67-4.48.58-7.48,4.87-9.74,8.39a58.22,58.22,0,0,0-3.61,6.69c-.54,1.15-1,2.31-1.53,3.47a7.35,7.35,0,0,1-2,3c-.36.29.15.8.51.51,1.59-1.3,2.17-3.45,3-5.26a64,64,0,0,1,3.26-6.46,37.44,37.44,0,0,1,4.16-5.91c1.57-1.79,3.5-3.43,5.94-3.75l-.18-.67c-3.68,2.1-5.4,6.06-7,9.77A25.52,25.52,0,0,1,233,78.26a50.59,50.59,0,0,1-5.55,5.2c-.35.3.16.81.51.51Z"/><path class="cls-3" d="M243.81,77.72A26.28,26.28,0,0,1,251.45,68c3.45-2.71,7.55-4.43,11-7.15l-.51-.51C256.73,67,251.14,74,243,77.11c-.43.16-.25.85.19.69,8.33-3.12,14-10.19,19.31-17a.36.36,0,0,0-.51-.51c-3.53,2.78-7.75,4.53-11.25,7.35a26.7,26.7,0,0,0-7.5,9.7c-.19.42.43.78.62.36Z"/><path class="cls-3" d="M257.68,66.58A53.35,53.35,0,0,0,265.43,63l-.53-.41c-1.51,4-5.3,6.53-8.63,8.93-3.8,2.74-8,5.33-12.86,5.18a.36.36,0,0,0,0,.72c5.14.16,9.55-2.61,13.55-5.51,3.41-2.47,7.09-5,8.64-9.13.11-.3-.28-.55-.53-.4a51.5,51.5,0,0,1-7.58,3.5c-.43.16-.25.86.19.7Z"/><path class="cls-3" d="M243.54,77.92a13.57,13.57,0,0,0,12,.07c4.18-1.84,7.67-4.91,11.8-6.85.34-.16.15-.66-.18-.67A35.52,35.52,0,0,0,255.82,72c-.44.14-.25.83.19.7a34.62,34.62,0,0,1,11.12-1.51l-.18-.67c-7.33,3.45-14.34,11.27-23,6.78-.41-.21-.77.41-.36.62Z"/><path class="cls-3" d="M243.3,77.33a11,11,0,0,1,2.36-8.94c1.88-2.23,5.09-3.59,5.37-6.84a.36.36,0,0,0-.54-.31c-3.23,1.9-6.56,4.05-8.37,7.45a8.27,8.27,0,0,0,.53,9.19c.3.36.8-.15.51-.51-2.16-2.61-1.72-6.28,0-9,1.83-2.93,4.81-4.81,7.72-6.51l-.54-.32c-.16,1.86-1.6,3.14-2.94,4.26a14.79,14.79,0,0,0-3.16,3.35,11.8,11.8,0,0,0-1.61,8.36c.08.46.78.26.7-.19Z"/><path class="cls-3" d="M235.15,82.16c4.89-2.55,10.63.2,15.72-1.59l-.35-.6a15.41,15.41,0,0,1-15.8,1.9c-.42-.19-.79.43-.36.63a16.18,16.18,0,0,0,16.67-2c.28-.22,0-.72-.35-.6-5.16,1.81-10.89-.95-15.89,1.66-.41.21,0,.84.36.62Z"/><path class="cls-3" d="M221.83,85.11c7.63,3,15.91,10.12,24.47,5.9a.36.36,0,0,0,0-.62,27.41,27.41,0,0,0-6.9-2.5c-.45-.1-.65.59-.19.69A27,27,0,0,1,245.94,91v-.62c-8.27,4.08-16.55-3.12-23.92-6-.43-.17-.62.53-.19.69Z"/><path class="cls-3" d="M156.5,78.84c14.69,6,31.89,4.35,45.43-3.8a.36.36,0,0,0-.37-.62,50.65,50.65,0,0,1-44.87,3.73c-.43-.18-.61.52-.19.69Z"/><path class="cls-3" d="M156.79,78.68c5.65.32,10.61-2.26,15.53-4.66.3-.15,1.3-.8,1.5-.54.34.43-.1,1.24-.3,1.6a7,7,0,0,1-2.25,2.51A11.28,11.28,0,0,1,165,79.12a35.59,35.59,0,0,1-3.58-.15,16.69,16.69,0,0,1-2.36-.22,17.79,17.79,0,0,1-2.34-.77c-.43-.15-.62.54-.19.7a21.8,21.8,0,0,0,2.2.73,14.09,14.09,0,0,0,2.24.25c1.23.1,2.46.19,3.7.19a12.79,12.79,0,0,0,6.66-1.47c1.53-.93,3.92-3.26,3.1-5.25-.46-1.11-1.68-.14-2.39.21-1.44.7-2.86,1.42-4.32,2.09a23,23,0,0,1-11,2.53c-.46,0-.46.7,0,.72Z"/><path class="cls-3" d="M161.46,81.12c3.56,1.48,6.25,4.29,8.95,6.94A27.22,27.22,0,0,0,179,94.23a20.36,20.36,0,0,0,2.53.86c.4.1.8.2,1.2.28a1.92,1.92,0,0,1,.55.11c.22,0,.29.13.23.4.19.3.14.45-.15.44-.36.3-1.4.26-1.88.29a12,12,0,0,1-1.34,0,14.17,14.17,0,0,1-3.36-.65A24.84,24.84,0,0,1,167,90.07c-2.92-2.95-4-7.1-6.57-10.3l-.44.56,1.25.9c.38.27.74-.36.36-.62l-1.25-.9c-.35-.25-.67.28-.43.57,2.67,3.31,3.74,7.58,6.86,10.58a25.07,25.07,0,0,0,10.6,6,11.53,11.53,0,0,0,6.38.08c1-.33,1.43-1.36.35-2a11.25,11.25,0,0,0-2.4-.6,19.64,19.64,0,0,1-3.57-1.33,23.24,23.24,0,0,1-5.53-3.9c-3.46-3.18-6.51-6.89-10.95-8.74-.43-.17-.62.52-.19.7Z"/><path class="cls-3" d="M176.45,82.56q1.26,1.86,2.49,3.73l1.2,1.85.57.9.33.51.16.26c0,.1.06.1.11,0l.27,0c-.32,0-.7-.48-1-.68s-.61-.5-.9-.76a14.39,14.39,0,0,1-1.57-1.65,9.63,9.63,0,0,1-1.11-1.82,8.53,8.53,0,0,1-.38-1.07,4.7,4.7,0,0,1-.12-.51,2.34,2.34,0,0,1,0-.26.49.49,0,0,1,0-.12c0-.1-.05-.13-.2-.1.2.42.82,0,.63-.37s-1-.31-1.12.18a3.44,3.44,0,0,0,.32,1.86A10.12,10.12,0,0,0,178.38,88a17.52,17.52,0,0,0,1.68,1.54l.79.61c.24.19.54.42.85.24.62-.34,0-1.11-.2-1.49l-1.32-2q-1.53-2.37-3.11-4.69c-.26-.39-.88,0-.62.36Z"/><path class="cls-3" d="M171.21,82c2.08-3.33,6.36-4.19,9.1-6.83A16.42,16.42,0,0,0,184.82,66a.37.37,0,0,0-.61-.35c-5,5.16-9.75,10.58-14.36,16.12-.3.35.21.87.51.51,4.61-5.54,9.32-11,14.36-16.12l-.6-.35a15.49,15.49,0,0,1-4.87,9.37c-2.76,2.37-6.65,3.25-8.67,6.48-.24.39.38.75.63.36Z"/><path class="cls-3" d="M183.86,81.71l19.27,2.09-.25-.62c-1.25,1.07-3.29,1.22-4.85,1.47a12.84,12.84,0,0,1-5.62-.13,6.75,6.75,0,0,1-2.36-1.23c-.49-.4-.91-.87-1.42-1.23a2.84,2.84,0,0,0-1.52-.57c-.8,0-1.84.4-2.54-.15-.36-.28-.88.23-.51.51a2.19,2.19,0,0,0,1.68.45,3.41,3.41,0,0,1,2.77.57,9.93,9.93,0,0,0,4.3,2.49,14.41,14.41,0,0,0,5.59,0c1.69-.28,3.64-.46,5-1.62.26-.22,0-.58-.26-.61L183.86,81c-.46,0-.45.67,0,.72Z"/><path class="cls-3" d="M186.54,81a55.93,55.93,0,0,0,5.3-4.91,21.83,21.83,0,0,0,3.33-5.54c1.75-3.88,3.3-8.29,7.21-10.52.29-.17.19-.72-.18-.67-4.48.58-7.49,4.86-9.74,8.39a56.79,56.79,0,0,0-3.62,6.69c-.53,1.15-1,2.3-1.52,3.46a7.31,7.31,0,0,1-2,3c-.36.3.16.8.51.51,1.6-1.29,2.18-3.44,3-5.26a64.85,64.85,0,0,1,3.25-6.45,38.1,38.1,0,0,1,4.16-5.91c1.58-1.8,3.5-3.43,5.95-3.75l-.18-.67c-3.69,2.09-5.4,6-7,9.76a25.1,25.1,0,0,1-3.43,6.13A48.61,48.61,0,0,1,186,80.49c-.35.31.16.82.51.51Z"/><path class="cls-3" d="M202.35,74.76A26.27,26.27,0,0,1,210,65c3.46-2.71,7.56-4.44,11-7.16l-.51-.5c-5.22,6.67-10.8,13.73-19,16.79-.43.16-.24.86.2.7,8.33-3.12,14-10.19,19.31-17a.36.36,0,0,0-.51-.5c-3.53,2.78-7.75,4.53-11.25,7.35a26.7,26.7,0,0,0-7.5,9.7c-.19.42.43.78.62.36Z"/><path class="cls-3" d="M216.22,63.62A53.84,53.84,0,0,0,224,60l-.53-.41c-1.51,4-5.3,6.53-8.63,8.93-3.8,2.74-8,5.33-12.86,5.18a.36.36,0,0,0,0,.72c5.13.15,9.54-2.61,13.55-5.51,3.4-2.47,7.09-5,8.63-9.13.12-.31-.27-.55-.52-.41A50.65,50.65,0,0,1,216,62.92c-.43.16-.24.86.2.7Z"/><path class="cls-3" d="M202.08,75A13.55,13.55,0,0,0,214,75c4.19-1.84,7.68-4.91,11.81-6.85.34-.16.15-.66-.18-.67A35.2,35.2,0,0,0,214.36,69c-.44.13-.25.83.19.69a34.89,34.89,0,0,1,11.12-1.5l-.18-.67c-7.33,3.45-14.34,11.27-23.05,6.78-.41-.21-.78.41-.36.62Z"/><path class="cls-3" d="M201.83,74.37a11,11,0,0,1,2.37-8.94c1.87-2.23,5.09-3.59,5.37-6.84a.37.37,0,0,0-.55-.31c-3.22,1.9-6.56,4-8.37,7.45a8.29,8.29,0,0,0,.54,9.19c.29.36.8-.15.51-.51-2.16-2.61-1.73-6.28,0-9,1.83-2.92,4.81-4.8,7.72-6.51l-.54-.31c-.16,1.86-1.6,3.14-2.94,4.26a14.57,14.57,0,0,0-3.16,3.35,11.74,11.74,0,0,0-1.61,8.36c.08.46.77.26.69-.19Z"/><path class="cls-3" d="M193.69,79.2c4.89-2.55,10.63.2,15.71-1.59l-.35-.6a15.39,15.39,0,0,1-15.79,1.9c-.42-.19-.79.43-.37.62a16.15,16.15,0,0,0,16.67-2c.29-.23,0-.72-.35-.6-5.15,1.81-10.89-1-15.88,1.66-.41.21-.05.83.36.62Z"/><path class="cls-3" d="M180.37,82.15c7.63,2.95,15.91,10.12,24.47,5.9a.36.36,0,0,0,0-.62,27.76,27.76,0,0,0-6.91-2.51c-.45-.1-.64.6-.19.7a26.68,26.68,0,0,1,6.73,2.43v-.62c-8.27,4.07-16.54-3.12-23.91-6-.43-.17-.62.52-.19.69Z"/></g></g></svg>