<svg xmlns="http://www.w3.org/2000/svg" viewBox="0 0 306.87 94.08"><defs><style>.cls-1{fill:#3e3a39;}.cls-2{fill:#497134;}</style></defs><title>logo3</title><g id="レイヤー_2" data-name="レイヤー 2"><g id="レイヤー_2-2" data-name="レイヤー 2"><path class="cls-1" d="M20.52,10.19a5.37,5.37,0,0,1,.79,2.67c0,1.87-2.08,3.45-4.1,4.1A35.23,35.23,0,0,1,13.1,18,92.09,92.09,0,0,0,7.56,32.23c-1,3.45-1.44,7.7,1.51,7.7a1.59,1.59,0,0,1,1.59,1.44c.07.79-.58,1.59-1.88,1.59a4.7,4.7,0,0,1-3.38-1.8A7.52,7.52,0,0,1,4.25,37.7c-.58-4.9,2.3-11.38,5-17.14.29-.57.57-1.29,1-2.09A68.34,68.34,0,0,1,1.44,19,1.4,1.4,0,0,1,0,17.54,1.43,1.43,0,0,1,1.66,16.1,57.9,57.9,0,0,0,11.59,16c1.16-2.3,2.31-4.6,2.74-5.25.72-1.16,1.73-2.24,3.1-2.24A3.32,3.32,0,0,1,20.52,10.19Zm-1.58,1.88c-.15-.72-.72-1.37-1.37-1.3s-1.87,2.16-2.74,3.89a6.85,6.85,0,0,0-.36.72c.65-.15,1.3-.36,2-.58C17.57,14.37,19.23,13.58,18.94,12.07ZM41.55,34A1.44,1.44,0,0,1,40,35.47c-.15,0-.65-.07-1-.07a26.89,26.89,0,0,0-9.29,2.23c.21,2.73.36,5-.58,6.69a4.5,4.5,0,0,1-5.25,1.73A3.22,3.22,0,0,1,22,42.38a7.28,7.28,0,0,1,2.52-4.32,11.58,11.58,0,0,1,2.67-1.8c-.29-4.39-.43-9.51,2.3-11.67a1.42,1.42,0,0,1,2.09.15,1.56,1.56,0,0,1-.07,2.09c-.72.57-.94.43-1.44,1.72a19.49,19.49,0,0,0-.51,6.63A31.5,31.5,0,0,1,40,32.59,1.44,1.44,0,0,1,41.55,34ZM27.43,38.78a7.64,7.64,0,0,0-2.59,2.38c-.43.72-.79,2-.36,2.44a1.72,1.72,0,0,0,2.45-.14C27.65,42.74,27.65,41.3,27.43,38.78ZM42,19.12a1.36,1.36,0,0,1-2,.51A13.19,13.19,0,0,0,29.67,19l-1.37.65a1.55,1.55,0,0,1-2-.44,1.23,1.23,0,0,1,.43-1.8,18.35,18.35,0,0,1,7.49-1.58c2.81,0,5.84.5,7.35,1.51A1.23,1.23,0,0,1,42,19.12Z"/><path class="cls-1" d="M74,27.69a8.22,8.22,0,0,1,.21,6.91c-1.58,3.53-6.55,5.48-9.07,3a9.43,9.43,0,0,1-2-3.24c-1.8,2.59-3.45,5.54-3.81,7.2a4.3,4.3,0,0,0-.07,1.94,1.37,1.37,0,0,1-1.16,1.66A1.4,1.4,0,0,1,56.45,44c-.58-3,1.87-6.91,4-10.15.65-1,1.37-2,2.16-3a15.7,15.7,0,0,1,.29-3.1,4,4,0,0,0-1.52,1.8,1.48,1.48,0,0,1-1.94.72,1.45,1.45,0,0,1-.72-1.94c.58-1.37,2.66-2.74,4.9-3.53a13.8,13.8,0,0,1,1.08-2.67c1.44-2.88,2.59-4.39,4-4.82a2,2,0,0,1,2.44,1c.51.79.44,2.73-.14,4.25a17.65,17.65,0,0,1-.94,2A7.37,7.37,0,0,1,74,27.69Zm-2,1.15a5.51,5.51,0,0,0-3.31-2.23,55.7,55.7,0,0,1-3.38,4.61l-.44.57v.29c.22,1.8,1.44,4.4,3.24,4.4C71.57,36.48,73.94,31.58,72.07,28.84Zm-6.62-2.16L65.3,27a1.36,1.36,0,0,0,.29-.43C65.52,26.68,65.52,26.68,65.45,26.68Zm.86-2.59h1.08a14,14,0,0,0,1.51-2.95A2.22,2.22,0,0,0,69,19.63,4.47,4.47,0,0,0,67.9,21,24.49,24.49,0,0,0,66.31,24.09Zm36.15,15.19c.5,1.08,1.08,2.38-.07,3.1a1.3,1.3,0,0,1-1.87-.58c-1.59-2.66-3.89-7.63-6.13-11.16-1.87-2.95-3.74-5.83-5.83-7.56a6.94,6.94,0,0,0-1.29-.93,1.43,1.43,0,0,1-.51-2,1.45,1.45,0,0,1,2-.5c1.87,1,5.25,6,7.7,9.64C97.71,31.08,101.45,37.2,102.46,39.28ZM93,7.6a1.52,1.52,0,0,1,1.37-1.73,1.36,1.36,0,0,1,1.44,1.44,11.36,11.36,0,0,0,.07,2.6,9,9,0,0,0,.8,2.3c.64,1.37,2.16,2.66,3.31,2.66a1.6,1.6,0,0,1,1.58,1.59c.08,1-.72,1.94-2.3,1.37a8,8,0,0,1-2.88-1.95,8.52,8.52,0,0,1-1.73-2.59A18.75,18.75,0,0,1,93,7.6Zm15.13,5.47c-.08,1-.94,1.3-1.73,1.23-1.08-.07-3.75-2-5.4-4.25a11.26,11.26,0,0,1-2.31-6,1.5,1.5,0,0,1,1.3-1.58,1.42,1.42,0,0,1,1.51,1.29,8.88,8.88,0,0,0,1.73,4.83c1.22,1.65,2.74,2.88,3.53,2.81S108.15,12.28,108.08,13.07Z"/><path class="cls-1" d="M144.94,35.9c-.43,1.37-2.16,5.11-2.88,5.76a1.43,1.43,0,0,1-2.16-.43c-.36-.58.14-1.59.72-2.31,2.81-3.52,4-9.36,1.73-13.46a7.43,7.43,0,0,0-5.84-3.67c-.14.64-.36,1.29-.5,1.94-2.16,8.21-3.24,13.11-6.34,12.75-3.38-.36-3.67-5.91-3.38-8.5.43-4,2.66-7.35,6.69-8.28a12,12,0,0,1,1.66-.29c.29-.86.58-1.73.94-2.59a1.64,1.64,0,0,1,1.87-1.15,1.5,1.5,0,0,1,.79,2.37l-.86,1.44a9.55,9.55,0,0,1,6.12,3.39C146.38,26.54,146.23,31.72,144.94,35.9ZM133.56,23.51l.43-1.65a7.59,7.59,0,0,0-1.8.65c-2.3,1.15-3.38,3.81-3.53,6.26-.07,1.51-.14,4.18,1.23,5.26C130.46,34.46,132.34,28.19,133.56,23.51Z"/><path class="cls-1" d="M212.47,16.6c-1.65-4.68-7.27-5.47-11.52-4.46a17.27,17.27,0,0,0-12.24,10.65c-1.65,4.54-1.58,10.66,1.15,14.77,4,6,12.82,5.54,18.94,3.67a24.12,24.12,0,0,0,6.7-2.88,15.14,15.14,0,0,1,2.59-1.87,1.42,1.42,0,0,1,1.73,2.08c-.72,1.16-2.67,2-3.82,2.6A36.72,36.72,0,0,1,200.45,45c-7.78-.14-13.18-4-14.84-11.45C182.81,21,192,9.26,204.41,9.26a13.05,13.05,0,0,1,7.13,1.87,10,10,0,0,1,2.23,2c.65.86,2,2.44,1.44,3.67A1.52,1.52,0,0,1,212.47,16.6Z"/><path class="cls-1" d="M244.37,29.13c-.65.79-2,.5-3,.5s-2.16.08-3.24.15c.14,1.15.21,2.3.29,3.46a74.5,74.5,0,0,1,.21,9.5,4.43,4.43,0,0,1-.43,2.38,1.46,1.46,0,0,1-1.94.36c-.8-.51-.65-1.3-.51-2.09a31.8,31.8,0,0,0,.29-6.41c-.07-2.3-.22-4.68-.43-7-2.31.29-4.54.65-6.7,1a36.33,36.33,0,0,0-4.68,1.16.8.8,0,0,1-.36.07,68.53,68.53,0,0,0-2.09,11.88c-.07.93-.14,1.8-.14,2.73,0,.72.29,1.52-.22,2.09a1.44,1.44,0,0,1-2.59-.72,31.87,31.87,0,0,1,.65-6.48,149.86,149.86,0,0,1,4.75-19.87,79.47,79.47,0,0,1,4.18-12.17c.79-1.66,2.37-4.39,4.39-2.23,1.73,1.87,2.73,6.41,3.89,12.17.5,2.44.86,5,1.15,7.41,1.58-.14,3.09-.21,4.61-.21a3.13,3.13,0,0,1,1.44.14A1.42,1.42,0,0,1,244.37,29.13Zm-9-1.8c-.22-1.73-.51-3.46-.72-5.18-.36-2.45-.87-4.83-1.44-7.2-1.59-6.41-1.8-6.63-4-.65-1.15,3.17-2.16,6.48-3.1,9.72-.5,1.73-1,3.45-1.44,5.25A106.78,106.78,0,0,1,235.37,27.33Z"/><path class="cls-1" d="M267.19,16c-5,1.52-14.76,7.85-18.14,11.6-.79.86-.43,1.15.79,2.23,2.3,2.09,8,4.39,12,4.9.58.07,1.16.21,1.73.28a14.73,14.73,0,0,1,1.8.08,1.47,1.47,0,0,1,.44,2.52c-.8.57-2,.28-2.89.14a42.56,42.56,0,0,1-12.45-4.46,16.36,16.36,0,0,1-2.88-2c-.58,6.77-.51,12.74,1.08,17a6.26,6.26,0,0,0,1.15,2.16c.5.58,1.3.65,1.66,1.3a1.46,1.46,0,0,1-1.8,2.09c-3.53-1.23-4.18-6.84-4.54-10-1.22-10.73.5-25.13,3.38-36.65l.87-3.39A8.36,8.36,0,0,1,250.56.54a1.46,1.46,0,0,1,2.52,1.37,91.16,91.16,0,0,0-3,11.52c-.72,3.82-1.3,7.64-1.8,11.52l.79-.72A69.87,69.87,0,0,1,264,14.15c.94-.43,2.6-1.51,3.68-.86A1.48,1.48,0,0,1,267.19,16Z"/><path class="cls-1" d="M306.87,7.74C306.72,9.33,305.07,8.9,304,9a19.56,19.56,0,0,0-4.61.94c-8.43,2.37-19.44,7.92-29.24,13.75-.72.43-1.44,1-2.16,1.44s-1.15,1-1.94.93a1.46,1.46,0,0,1-.65-2.66c8.86-5.9,27.29-14.62,36-16.78C302.83,6.23,307.08,5.15,306.87,7.74Zm-3.1,17.36a1.47,1.47,0,0,1-.43,2.16,6.55,6.55,0,0,1-2.09.21c-.72.08-1.51.29-2.31.44a55.63,55.63,0,0,0-11.16,3.38,30.53,30.53,0,0,0-4,1.87,2.47,2.47,0,0,1-.65.36c1,4.83,3.39,8.64,7.35,9.29,3,.51,6.05-.72,8.57-2.09.79-.43,1.58-1.08,2.45-.36A1.47,1.47,0,0,1,301.9,42c-.29.72-1.08,1-1.73,1.29-3.1,1.37-6.41,2.67-9.87,2.16-8.78-1.29-11.88-13.75-9.43-24A14.86,14.86,0,0,1,282,17.47a1.45,1.45,0,0,1,2.59,1.29,25.23,25.23,0,0,0-1.8,11.88,72.18,72.18,0,0,1,18.51-6C302.11,24.52,303.19,24.23,303.77,25.1Z"/><path class="cls-2" d="M104.69,74.76A50.67,50.67,0,0,1,59.8,71.27a.36.36,0,0,0-.36.62C73,80,90.23,81.57,104.88,75.46c.42-.18.24-.88-.19-.7Z"/><path class="cls-2" d="M104.59,74.58a21.83,21.83,0,0,1-9.87-2c-1.49-.63-2.94-1.35-4.39-2l-2-1c-.42-.2-.79-.45-1.19-.08-.69.65-.29,1.88.07,2.56a7.89,7.89,0,0,0,2.17,2.56,11,11,0,0,0,6.35,1.89,35.45,35.45,0,0,0,4.25-.16c.71-.06,1.43-.07,2.13-.18a15.1,15.1,0,0,0,2.75-.86c.43-.16.25-.85-.19-.69-.64.22-1.27.49-1.92.67a11,11,0,0,1-2.22.29c-1.07.1-2.15.18-3.24.21a13.43,13.43,0,0,1-6.33-1,7,7,0,0,1-2.47-2,6.06,6.06,0,0,1-.87-1.47,1.36,1.36,0,0,1-.09-.69c0-.45,0-.5.43-.37A31.12,31.12,0,0,1,91.64,72c1.2.58,2.41,1.14,3.65,1.63a21.53,21.53,0,0,0,9.3,1.7c.46,0,.46-.75,0-.72Z"/><path class="cls-2" d="M99.75,77.06c-3.83,1.62-6.64,4.61-9.54,7.48-3.33,3.29-7,5.9-11.65,6.88-.81.17-2.63.82-1.54,2a3.82,3.82,0,0,0,2.06.61,12.4,12.4,0,0,0,3.22,0c4-.54,7.91-2.76,11-5.24a17.64,17.64,0,0,0,4.4-5.28,45,45,0,0,1,3.76-6.53c.23-.29-.07-.83-.43-.57l-1.25.9c-.37.27,0,.9.37.62l1.24-.89L101,76.4c-2.2,2.76-3.23,6.21-5.37,9a23.06,23.06,0,0,1-9.36,6.69,14.45,14.45,0,0,1-6,1.25,4.82,4.82,0,0,1-1.89-.23c-.4-.21-.46.15-.36-.48s0-.26.36-.44a5.92,5.92,0,0,1,1.21-.27c.53-.13,1.06-.29,1.58-.46a23.79,23.79,0,0,0,8.67-5.54c3.14-3,6-6.45,10.13-8.17.42-.18.24-.88-.19-.7Z"/><path class="cls-2" d="M84.33,78.91c-.91,1.37-1.82,2.75-2.71,4.13l-1.36,2.12c-.21.34-.45.67-.65,1a.88.88,0,0,0-.11.69c.27.77,1.09.05,1.44-.23a21,21,0,0,0,1.68-1.45,10.87,10.87,0,0,0,2.47-3.49,5.54,5.54,0,0,0,.54-2.14.71.71,0,0,0-.45-.69.57.57,0,0,0-.7.28c-.2.42.42.78.62.36l-.19,0v.1a1.26,1.26,0,0,0,0,.27c0,.17-.07.34-.11.51a6.88,6.88,0,0,1-.37,1.08,9.31,9.31,0,0,1-1.1,1.85A13.21,13.21,0,0,1,81.76,85c-.29.27-.59.52-.89.77l-.44.35c-.16.13-.36.35-.57.38l.28,0c0,.1.08.09.1,0l.16-.26c.11-.17.22-.34.32-.51l.57-.9L82.49,83q1.22-1.87,2.46-3.74c.26-.39-.36-.75-.62-.37Z"/><path class="cls-2" d="M90.82,78.31c-2-3.22-5.92-4.08-8.7-6.43a15.37,15.37,0,0,1-4.92-9.34l-.61.35C81.66,68,86.4,73.41,91,78.93c.3.36.81-.15.51-.51-4.64-5.51-9.38-10.91-14.45-16-.27-.28-.65,0-.6.35a16.37,16.37,0,0,0,4.56,9.16c2.74,2.64,7,3.46,9.13,6.78.25.4.88,0,.63-.36Z"/><path class="cls-2" d="M77.54,77.74,58.28,79.93c-.28,0-.52.39-.26.61,1.32,1.12,3.18,1.29,4.81,1.57a14.8,14.8,0,0,0,5.78,0,9.3,9.3,0,0,0,4.18-2.42,3.2,3.2,0,0,1,2.74-.69,2.33,2.33,0,0,0,1.81-.44c.36-.29-.15-.79-.51-.51-.7.55-1.74.1-2.53.16a2.88,2.88,0,0,0-1.42.49,18.9,18.9,0,0,0-1.52,1.32A6.61,6.61,0,0,1,69,81.31a12.29,12.29,0,0,1-5.43.19c-1.61-.24-3.75-.38-5-1.47l-.25.62,19.26-2.19c.45,0,.46-.77,0-.72Z"/><path class="cls-2" d="M75.37,77.26a53,53,0,0,1-5.45-5A24.72,24.72,0,0,1,66.34,66c-1.64-3.7-3.38-7.66-7.07-9.74l-.18.67a9.81,9.81,0,0,1,5.85,3.59,37.46,37.46,0,0,1,4.3,6,63.89,63.89,0,0,1,3.22,6.27c.84,1.85,1.44,4.09,3.08,5.42.36.28.87-.22.51-.51-1.82-1.47-2.49-4.26-3.45-6.31a57.42,57.42,0,0,0-3.73-6.85C66.6,61,63.58,56.77,59.09,56.2c-.37,0-.47.51-.18.68,3.92,2.2,5.49,6.6,7.26,10.48a21.83,21.83,0,0,0,3.24,5.38,52,52,0,0,0,5.45,5c.35.3.86-.2.51-.51Z"/><path class="cls-2" d="M59.64,71.24a26.89,26.89,0,0,0-7.55-9.66c-3.52-2.8-7.75-4.53-11.29-7.29a.36.36,0,0,0-.51.51c5.34,6.77,11.05,13.81,19.4,16.88.43.16.62-.53.19-.69-8.21-3-13.83-10-19.08-16.7l-.51.51c3.41,2.65,7.43,4.35,10.86,7A26.12,26.12,0,0,1,59,71.61c.2.42.82,0,.63-.37Z"/><path class="cls-2" d="M45.28,59.84a51.57,51.57,0,0,1-7.6-3.47c-.25-.14-.64.1-.53.41,1.57,4.08,5.27,6.63,8.69,9.08,4,2.89,8.44,5.63,13.57,5.45.46,0,.47-.74,0-.72-4.86.17-9.07-2.39-12.89-5.12-3.34-2.38-7.14-4.88-8.67-8.88l-.53.41a52.33,52.33,0,0,0,7.77,3.54c.44.15.62-.54.19-.7Z"/><path class="cls-2" d="M58.93,71.19c-8.69,4.53-15.74-3.25-23.09-6.66l-.18.67a34.91,34.91,0,0,1,11.13,1.44c.44.14.63-.56.19-.69a35.25,35.25,0,0,0-11.32-1.47c-.33,0-.52.51-.18.67,4.14,1.92,7.65,5,11.84,6.79a13.57,13.57,0,0,0,12-.13c.41-.22.05-.84-.36-.62Z"/><path class="cls-2" d="M60.22,71.4a11.74,11.74,0,0,0-1.65-8.35A14.14,14.14,0,0,0,55.5,59.8c-1.38-1.13-2.89-2.42-3.07-4.32l-.54.31c2.92,1.69,5.91,3.55,7.76,6.47,1.71,2.7,2.16,6.38,0,9-.29.36.21.87.51.51a8.29,8.29,0,0,0,.49-9.19c-1.83-3.39-5.17-5.52-8.41-7.4a.37.37,0,0,0-.55.31c.3,3.24,3.52,4.59,5.41,6.81a11,11,0,0,1,2.41,8.92c-.08.46.61.65.69.19Z"/><path class="cls-2" d="M68.06,75.38c-5-2.58-10.73.2-15.9-1.58-.32-.11-.63.38-.35.6A16.16,16.16,0,0,0,68.5,76.33c.41-.19,0-.81-.37-.62a15.4,15.4,0,0,1-15.81-1.82l-.35.6c5.1,1.76,10.82-1,15.72,1.51.42.22.78-.41.37-.62Z"/><path class="cls-2" d="M80.84,78.19C73.49,81.08,65.25,88.32,57,84.29v.62a27.25,27.25,0,0,1,6.72-2.47c.45-.1.26-.79-.2-.69a27.84,27.84,0,0,0-6.89,2.54.36.36,0,0,0,0,.62c8.59,4.18,16.83-3,24.44-6,.43-.17.24-.87-.19-.7Z"/><path class="cls-2" d="M146.89,71.8c-14.48,6-31.45,4.49-44.89-3.49a.36.36,0,0,0-.36.62c13.58,8.07,30.79,9.68,45.45,3.56.42-.17.23-.87-.2-.69Z"/><path class="cls-2" d="M146.79,71.62a21.86,21.86,0,0,1-9.87-2c-1.49-.63-2.94-1.35-4.39-2-.68-.34-1.36-.67-2.05-1-.41-.19-.79-.44-1.18-.07-.69.65-.29,1.88.07,2.56a7.74,7.74,0,0,0,2.16,2.56,11.14,11.14,0,0,0,6.35,1.89,35.69,35.69,0,0,0,4.26-.16c.7-.06,1.42-.07,2.12-.18a15.39,15.39,0,0,0,2.75-.86c.44-.16.25-.85-.19-.7-.63.23-1.26.49-1.92.68a11,11,0,0,1-2.21.29c-1.08.1-2.16.18-3.24.21a13.46,13.46,0,0,1-6.34-1,6.87,6.87,0,0,1-2.46-2,6,6,0,0,1-.88-1.47,1.48,1.48,0,0,1-.09-.69c0-.46,0-.5.44-.37A31,31,0,0,1,133.84,69c1.2.58,2.41,1.13,3.65,1.63a21.68,21.68,0,0,0,9.3,1.7c.46,0,.47-.75,0-.72Z"/><path class="cls-2" d="M142,74.1c-3.83,1.61-6.64,4.61-9.54,7.48-3.33,3.29-7,5.9-11.64,6.88-.82.17-2.64.82-1.54,2a3.77,3.77,0,0,0,2.06.61,12.4,12.4,0,0,0,3.22,0c4-.54,7.91-2.76,11-5.24a17.49,17.49,0,0,0,4.4-5.28A44.11,44.11,0,0,1,143.69,74c.23-.29-.08-.83-.44-.57l-1.25.9c-.37.27,0,.89.37.62l1.24-.9-.43-.56c-2.21,2.76-3.24,6.21-5.37,9a23.26,23.26,0,0,1-9.37,6.69,14.59,14.59,0,0,1-6,1.25,4.87,4.87,0,0,1-1.9-.23c-.4-.21-.46.15-.36-.49s0-.25.37-.43a5.82,5.82,0,0,1,1.2-.27c.54-.13,1.06-.29,1.58-.47A23.56,23.56,0,0,0,132,83c3.15-3,6-6.45,10.13-8.17.42-.18.24-.88-.19-.7Z"/><path class="cls-2" d="M126.54,76c-.92,1.37-1.82,2.75-2.72,4.13l-1.35,2.12c-.22.33-.46.67-.65,1a.89.89,0,0,0-.12.69c.28.78,1.09.06,1.44-.22a21.32,21.32,0,0,0,1.68-1.45,10.83,10.83,0,0,0,2.47-3.49,5.54,5.54,0,0,0,.54-2.14.69.69,0,0,0-.45-.69.56.56,0,0,0-.7.28c-.19.42.43.78.62.36l-.19,0v.1a2.51,2.51,0,0,0,0,.27,4,4,0,0,1-.11.5,6.09,6.09,0,0,1-.37,1.09,8.69,8.69,0,0,1-1.1,1.85A13.16,13.16,0,0,1,124,82.06c-.29.27-.59.52-.89.77l-.44.35c-.15.12-.36.35-.57.38l.28,0c0,.1.08.1.1,0l.16-.26.33-.51.57-.9c.39-.62.79-1.24,1.19-1.86.81-1.25,1.64-2.5,2.47-3.75.26-.38-.37-.74-.62-.36Z"/><path class="cls-2" d="M133,75.35c-2-3.22-5.92-4.08-8.7-6.43a15.43,15.43,0,0,1-4.92-9.34l-.6.35c5.07,5.12,9.81,10.52,14.45,16,.3.36.8-.16.51-.51-4.64-5.52-9.38-10.91-14.45-16a.36.36,0,0,0-.6.35,16.39,16.39,0,0,0,4.55,9.16c2.75,2.64,7,3.46,9.14,6.78.25.39.87,0,.62-.36Z"/><path class="cls-2" d="M119.74,74.78,100.48,77c-.27,0-.52.39-.25.61,1.31,1.12,3.17,1.29,4.81,1.57a14.75,14.75,0,0,0,5.77,0A9.3,9.3,0,0,0,115,76.78a3.2,3.2,0,0,1,2.74-.69,2.32,2.32,0,0,0,1.81-.44c.37-.29-.14-.8-.51-.51-.7.55-1.74.1-2.53.15a3,3,0,0,0-1.41.5,16,16,0,0,0-1.52,1.32,6.69,6.69,0,0,1-2.36,1.24,12.33,12.33,0,0,1-5.44.19c-1.6-.24-3.75-.38-5-1.47l-.26.62,19.26-2.19c.45,0,.46-.77,0-.72Z"/><path class="cls-2" d="M117.57,74.3a53,53,0,0,1-5.45-5A24.68,24.68,0,0,1,108.54,63c-1.64-3.7-3.37-7.65-7.06-9.73l-.19.67a9.81,9.81,0,0,1,5.85,3.59,37.52,37.52,0,0,1,4.31,6,66.07,66.07,0,0,1,3.21,6.27c.84,1.85,1.44,4.09,3.09,5.41.35.29.87-.21.51-.51-1.83-1.46-2.49-4.26-3.46-6.31a57.29,57.29,0,0,0-3.73-6.84c-2.27-3.52-5.29-7.79-9.78-8.35-.36,0-.47.51-.18.67,3.92,2.21,5.49,6.61,7.26,10.48a22.33,22.33,0,0,0,3.24,5.39,54,54,0,0,0,5.45,5c.35.3.86-.21.51-.51Z"/><path class="cls-2" d="M101.84,68.28a26.89,26.89,0,0,0-7.55-9.66c-3.52-2.8-7.74-4.53-11.29-7.29a.36.36,0,0,0-.51.51c5.34,6.76,11.05,13.81,19.4,16.88.44.16.62-.53.19-.69C93.87,65,88.25,58,83,51.33l-.51.51c3.41,2.65,7.43,4.35,10.87,7a26.14,26.14,0,0,1,7.86,9.85c.19.42.81,0,.62-.37Z"/><path class="cls-2" d="M87.48,56.88a51.46,51.46,0,0,1-7.59-3.47c-.26-.14-.65.1-.53.41,1.56,4.08,5.26,6.63,8.68,9.08,4,2.88,8.44,5.63,13.57,5.44a.36.36,0,0,0,0-.72c-4.86.18-9.06-2.39-12.88-5.11-3.35-2.38-7.15-4.89-8.68-8.88l-.53.4a53.28,53.28,0,0,0,7.77,3.54c.44.16.63-.53.19-.69Z"/><path class="cls-2" d="M101.13,68.23C92.44,72.76,85.4,65,78.05,61.56l-.18.67A34.89,34.89,0,0,1,89,63.68c.44.14.63-.56.19-.69a35.51,35.51,0,0,0-11.31-1.48c-.34,0-.53.52-.19.68,4.14,1.92,7.65,5,11.84,6.79a13.6,13.6,0,0,0,12-.13c.41-.22.05-.84-.36-.62Z"/><path class="cls-2" d="M102.43,68.44a11.74,11.74,0,0,0-1.66-8.35,13.94,13.94,0,0,0-3.07-3.25c-1.38-1.13-2.89-2.42-3.06-4.33l-.54.32c2.91,1.69,5.91,3.55,7.75,6.47,1.71,2.7,2.16,6.37,0,9-.29.36.22.87.51.51a8.27,8.27,0,0,0,.49-9.19c-1.83-3.39-5.17-5.53-8.41-7.41-.22-.12-.57,0-.54.31.29,3.25,3.51,4.6,5.4,6.82a11,11,0,0,1,2.41,8.92c-.08.45.62.65.7.19Z"/><path class="cls-2" d="M110.26,72.42c-5-2.58-10.73.2-15.89-1.58-.33-.11-.64.38-.35.6a16.14,16.14,0,0,0,16.68,1.93c.42-.19,0-.81-.36-.62a15.41,15.41,0,0,1-15.81-1.82l-.35.6c5.09,1.76,10.82-1,15.72,1.51.41.21.77-.41.36-.62Z"/><path class="cls-2" d="M123.05,75.23c-7.36,2.89-15.6,10.13-23.89,6.1V82a27.25,27.25,0,0,1,6.72-2.47c.45-.1.26-.79-.19-.69a27.69,27.69,0,0,0-6.89,2.54.36.36,0,0,0,0,.62c8.58,4.18,16.82-3,24.44-6,.42-.16.24-.86-.19-.69Z"/><path class="cls-2" d="M188,75.15c14.68,6,31.88,4.35,45.42-3.79.4-.24,0-.87-.36-.63a50.65,50.65,0,0,1-44.87,3.73c-.43-.18-.62.52-.19.69Z"/><path class="cls-2" d="M188.32,75c5.65.31,10.6-2.27,15.53-4.67.29-.14,1.3-.8,1.5-.54.33.43-.1,1.24-.3,1.6a7.14,7.14,0,0,1-2.25,2.51,11.4,11.4,0,0,1-6.23,1.54c-1.2,0-2.4-.06-3.59-.16a17,17,0,0,1-2.36-.22,17.65,17.65,0,0,1-2.33-.77c-.44-.15-.63.54-.19.7a20.82,20.82,0,0,0,2.19.73,14.09,14.09,0,0,0,2.25.25c1.23.1,2.46.19,3.69.19a12.81,12.81,0,0,0,6.67-1.47c1.52-.93,3.92-3.26,3.09-5.25-.46-1.11-1.68-.14-2.38.21-1.44.7-2.87,1.42-4.32,2.09a23,23,0,0,1-11,2.53c-.46,0-.46.7,0,.73Z"/><path class="cls-2" d="M193,77.43c3.57,1.48,6.26,4.29,9,6.95a27.31,27.31,0,0,0,8.56,6.16,20.51,20.51,0,0,0,2.54.86c.39.1.8.2,1.2.28a2.07,2.07,0,0,1,.55.11c.21,0,.29.13.22.41.19.29.15.44-.14.43a4.35,4.35,0,0,1-1.89.29,12,12,0,0,1-1.34,0,13.78,13.78,0,0,1-3.36-.65,24.88,24.88,0,0,1-9.76-5.88c-2.92-2.95-4-7.1-6.58-10.3l-.43.56,1.25.9c.37.27.73-.36.36-.62l-1.25-.9c-.36-.25-.67.28-.44.57,2.67,3.31,3.75,7.58,6.87,10.58a25,25,0,0,0,10.59,6,11.57,11.57,0,0,0,6.39.08c1-.33,1.43-1.36.35-2a11.25,11.25,0,0,0-2.4-.6,20,20,0,0,1-3.58-1.33,23.18,23.18,0,0,1-5.52-3.9c-3.46-3.18-6.51-6.89-11-8.73-.43-.18-.61.51-.19.69Z"/><path class="cls-2" d="M208,78.87q1.26,1.86,2.49,3.73l1.2,1.85c.2.3.39.6.58.9l.33.51.16.26c0,.1.05.1.1,0l.28,0c-.33,0-.71-.47-1-.68s-.6-.5-.9-.76A14.3,14.3,0,0,1,209.69,83a8.69,8.69,0,0,1-1.11-1.82,7.24,7.24,0,0,1-.39-1.07c0-.17-.08-.34-.11-.51a2.38,2.38,0,0,1-.05-.26s0-.08,0-.12-.05-.13-.19-.1c.2.42.82,0,.62-.37s-1-.31-1.11.18a3.43,3.43,0,0,0,.31,1.86,10.12,10.12,0,0,0,2.25,3.55,18.93,18.93,0,0,0,1.69,1.54l.78.61c.25.19.54.42.86.24.62-.34,0-1.11-.21-1.49-.43-.68-.87-1.36-1.31-2-1-1.58-2.06-3.14-3.11-4.69-.26-.39-.89,0-.63.36Z"/><path class="cls-2" d="M202.73,78.3c2.09-3.33,6.37-4.19,9.11-6.83a16.34,16.34,0,0,0,4.5-9.19.36.36,0,0,0-.6-.35c-5,5.16-9.76,10.58-14.37,16.12-.29.35.22.87.51.51,4.61-5.54,9.33-11,14.37-16.12l-.6-.35a15.49,15.49,0,0,1-4.87,9.37c-2.77,2.37-6.65,3.25-8.67,6.48-.25.39.38.75.62.36Z"/><path class="cls-2" d="M215.39,78l19.27,2.09-.26-.62c-1.24,1.07-3.29,1.22-4.84,1.47a12.84,12.84,0,0,1-5.62-.13,6.88,6.88,0,0,1-2.37-1.23c-.48-.4-.9-.87-1.42-1.23a2.81,2.81,0,0,0-1.52-.57c-.79,0-1.83.4-2.54-.15-.36-.28-.87.23-.51.51a2.2,2.2,0,0,0,1.68.45,3.43,3.43,0,0,1,2.78.57,9.78,9.78,0,0,0,4.3,2.49,14.41,14.41,0,0,0,5.59,0c1.68-.28,3.64-.46,5-1.62.26-.22,0-.58-.25-.61L215.39,77.3c-.46,0-.46.67,0,.72Z"/><path class="cls-2" d="M218.06,77.31a54.73,54.73,0,0,0,5.3-4.91,21.87,21.87,0,0,0,3.34-5.54c1.75-3.88,3.3-8.29,7.2-10.52.29-.17.19-.72-.18-.67-4.48.58-7.48,4.87-9.73,8.39a56.79,56.79,0,0,0-3.62,6.69c-.53,1.15-1,2.3-1.53,3.47a7.41,7.41,0,0,1-2,3c-.36.29.15.79.51.5,1.59-1.29,2.18-3.44,3-5.26a64.93,64.93,0,0,1,3.26-6.45,37.44,37.44,0,0,1,4.16-5.91c1.57-1.79,3.5-3.43,5.94-3.75l-.18-.67c-3.68,2.09-5.4,6.06-7,9.76a25.4,25.4,0,0,1-3.42,6.13,48.71,48.71,0,0,1-5.55,5.19c-.35.31.16.82.51.51Z"/><path class="cls-2" d="M233.87,71.07a26.48,26.48,0,0,1,7.64-9.75c3.45-2.71,7.55-4.44,11-7.15l-.51-.51c-5.21,6.67-10.79,13.73-19,16.79-.43.17-.24.86.19.7,8.33-3.12,14-10.19,19.31-17a.36.36,0,0,0-.51-.51c-3.53,2.78-7.74,4.53-11.25,7.35a26.7,26.7,0,0,0-7.5,9.7c-.19.42.43.78.62.36Z"/><path class="cls-2" d="M247.74,59.93a53.35,53.35,0,0,0,7.75-3.58l-.52-.41c-1.52,4-5.3,6.53-8.63,8.93-3.81,2.74-8,5.33-12.86,5.18a.36.36,0,0,0,0,.72c5.13.15,9.54-2.61,13.54-5.51,3.41-2.47,7.1-5,8.64-9.13.12-.31-.27-.55-.53-.41a50.54,50.54,0,0,1-7.58,3.51c-.43.16-.25.86.19.7Z"/><path class="cls-2" d="M233.6,71.27a13.57,13.57,0,0,0,12,.07c4.19-1.84,7.67-4.91,11.8-6.85.34-.16.16-.66-.18-.67a35.42,35.42,0,0,0-11.3,1.53.36.36,0,0,0,.19.69,34.83,34.83,0,0,1,11.11-1.5l-.18-.67c-7.33,3.45-14.34,11.27-23,6.78-.41-.21-.77.41-.36.62Z"/><path class="cls-2" d="M233.36,70.68a11,11,0,0,1,2.36-8.94c1.88-2.23,5.1-3.59,5.37-6.84a.36.36,0,0,0-.54-.31c-3.23,1.9-6.56,4-8.37,7.45a8.27,8.27,0,0,0,.53,9.19c.3.36.8-.15.51-.51-2.15-2.61-1.72-6.28,0-9,1.83-2.93,4.82-4.81,7.72-6.52l-.54-.31c-.16,1.86-1.59,3.14-2.94,4.26a14.74,14.74,0,0,0-3.15,3.35,11.8,11.8,0,0,0-1.62,8.36c.09.46.78.26.7-.19Z"/><path class="cls-2" d="M225.22,75.51c4.89-2.55,10.62.2,15.71-1.59l-.35-.6a15.41,15.41,0,0,1-15.8,1.9c-.42-.19-.78.43-.36.62a16.15,16.15,0,0,0,16.67-2,.36.36,0,0,0-.35-.6c-5.16,1.81-10.89-1-15.89,1.66-.41.21,0,.84.37.62Z"/><path class="cls-2" d="M211.89,78.46c7.63,3,15.91,10.12,24.47,5.9a.36.36,0,0,0,0-.62,27.83,27.83,0,0,0-6.9-2.51c-.45-.09-.64.6-.19.7A27,27,0,0,1,236,84.36v-.62c-8.27,4.08-16.55-3.12-23.92-6-.43-.17-.62.52-.19.69Z"/><path class="cls-2" d="M146.56,72.19c14.69,6,31.89,4.35,45.43-3.8a.36.36,0,0,0-.36-.62,50.67,50.67,0,0,1-44.88,3.73c-.42-.18-.61.52-.19.69Z"/><path class="cls-2" d="M146.86,72c5.64.32,10.6-2.26,15.52-4.66.3-.15,1.31-.8,1.51-.54.33.42-.11,1.24-.3,1.6a7.17,7.17,0,0,1-2.26,2.51,11.34,11.34,0,0,1-6.23,1.53,35.72,35.72,0,0,1-3.58-.15,18.65,18.65,0,0,1-2.36-.22,19.25,19.25,0,0,1-2.33-.77c-.44-.15-.63.54-.2.7a21.8,21.8,0,0,0,2.2.73,14.09,14.09,0,0,0,2.25.25c1.22.1,2.46.18,3.69.19a12.76,12.76,0,0,0,6.67-1.48c1.52-.92,3.91-3.25,3.09-5.24-.46-1.11-1.68-.14-2.38.2-1.44.7-2.87,1.43-4.33,2.1a23.13,23.13,0,0,1-11,2.53c-.47,0-.46.7,0,.72Z"/><path class="cls-2" d="M151.52,74.47c3.57,1.48,6.25,4.28,9,6.94A27.15,27.15,0,0,0,169,87.57a18.89,18.89,0,0,0,2.53.87c.4.1.8.2,1.21.28a2.05,2.05,0,0,1,.55.1c.21,0,.29.14.22.41.19.3.14.44-.14.44a4.35,4.35,0,0,1-1.89.29,12,12,0,0,1-1.34,0,14.27,14.27,0,0,1-3.36-.65,24.81,24.81,0,0,1-9.76-5.88c-2.93-3-4-7.11-6.58-10.3l-.44.56,1.25.9c.38.27.74-.36.37-.63l-1.25-.89c-.36-.25-.68.27-.44.57,2.67,3.31,3.75,7.58,6.86,10.58a25.18,25.18,0,0,0,10.6,6,11.66,11.66,0,0,0,6.39.08c1-.33,1.42-1.37.35-2a10.38,10.38,0,0,0-2.41-.6,19.64,19.64,0,0,1-3.57-1.33,23.44,23.44,0,0,1-5.53-3.9c-3.46-3.18-6.5-6.89-10.95-8.74-.43-.17-.61.52-.19.7Z"/><path class="cls-2" d="M166.51,75.91q1.26,1.86,2.49,3.73l1.2,1.85c.19.3.38.6.58.9l.32.51.17.26c0,.1,0,.1.1,0l.28,0c-.33,0-.71-.48-1-.68s-.61-.5-.9-.76A13.49,13.49,0,0,1,168.23,80a9,9,0,0,1-1.11-1.82,7,7,0,0,1-.39-1.08l-.12-.5c0-.09,0-.18,0-.26a.49.49,0,0,1,0-.12c0-.1-.05-.13-.19-.1.19.42.82,0,.62-.37s-1-.31-1.12.18a3.54,3.54,0,0,0,.32,1.86,10.12,10.12,0,0,0,2.25,3.55,16.52,16.52,0,0,0,1.69,1.54l.78.61c.25.19.54.42.86.24.61-.34,0-1.11-.21-1.49-.43-.68-.87-1.36-1.32-2q-1.53-2.36-3.11-4.69c-.25-.38-.88,0-.62.37Z"/><path class="cls-2" d="M161.27,75.34c2.08-3.33,6.36-4.19,9.1-6.83a16.42,16.42,0,0,0,4.51-9.19c.05-.33-.33-.63-.6-.35-5.05,5.16-9.76,10.58-14.37,16.12-.29.35.21.87.51.51,4.61-5.54,9.32-11,14.37-16.12l-.61-.35a15.44,15.44,0,0,1-4.87,9.37c-2.76,2.37-6.64,3.24-8.66,6.47-.25.4.37.76.62.37Z"/><path class="cls-2" d="M173.93,75.06l19.26,2.09-.25-.62c-1.24,1.07-3.29,1.22-4.85,1.46a12.55,12.55,0,0,1-5.62-.13,6.64,6.64,0,0,1-2.36-1.22c-.49-.4-.91-.87-1.42-1.24a3,3,0,0,0-1.52-.57c-.8,0-1.84.41-2.54-.14-.36-.28-.87.23-.51.51a2.28,2.28,0,0,0,1.68.45,3.43,3.43,0,0,1,2.78.57,9.84,9.84,0,0,0,4.29,2.49,14.46,14.46,0,0,0,5.6,0c1.68-.28,3.63-.47,5-1.62.26-.23,0-.59-.26-.62l-19.26-2.08c-.46,0-.46.67,0,.72Z"/><path class="cls-2" d="M176.6,74.35a55.93,55.93,0,0,0,5.3-4.91,21.75,21.75,0,0,0,3.34-5.55c1.74-3.87,3.29-8.29,7.2-10.51.29-.17.19-.72-.18-.67-4.48.58-7.48,4.86-9.74,8.39a58.22,58.22,0,0,0-3.61,6.69c-.54,1.15-1,2.3-1.53,3.46a7.29,7.29,0,0,1-2,3c-.36.3.15.8.51.51,1.59-1.29,2.17-3.44,3-5.26a64.93,64.93,0,0,1,3.26-6.45,37.44,37.44,0,0,1,4.16-5.91c1.57-1.8,3.5-3.44,5.94-3.75l-.18-.68c-3.68,2.1-5.4,6.06-7,9.77a25.4,25.4,0,0,1-3.42,6.13,49.56,49.56,0,0,1-5.55,5.19c-.35.31.16.82.51.51Z"/><path class="cls-2" d="M192.41,68.11a26.2,26.2,0,0,1,7.64-9.75c3.45-2.71,7.55-4.44,11-7.16l-.51-.51c-5.21,6.68-10.8,13.74-19,16.8-.43.16-.25.86.19.7,8.33-3.12,14-10.19,19.31-17a.36.36,0,0,0-.51-.51c-3.53,2.79-7.75,4.53-11.25,7.36a26.7,26.7,0,0,0-7.5,9.7c-.19.41.43.78.62.36Z"/><path class="cls-2" d="M206.28,57A52.26,52.26,0,0,0,214,53.39L213.5,53c-1.51,4-5.3,6.53-8.63,8.93-3.8,2.74-8,5.32-12.86,5.18-.46,0-.46.71,0,.72,5.14.15,9.55-2.61,13.55-5.51,3.41-2.47,7.09-5,8.64-9.13.11-.31-.28-.55-.53-.41a50.54,50.54,0,0,1-7.58,3.51c-.43.16-.25.85.19.69Z"/><path class="cls-2" d="M192.14,68.31a13.57,13.57,0,0,0,12,.07c4.18-1.84,7.67-4.91,11.8-6.85.34-.16.15-.67-.18-.67a35.24,35.24,0,0,0-11.31,1.53c-.44.13-.25.83.19.69a34.89,34.89,0,0,1,11.12-1.5l-.18-.67c-7.33,3.44-14.34,11.26-23.05,6.78-.41-.21-.77.41-.36.62Z"/><path class="cls-2" d="M191.9,67.72a11,11,0,0,1,2.36-8.94c1.88-2.23,5.09-3.59,5.37-6.84a.36.36,0,0,0-.54-.31c-3.23,1.9-6.56,4-8.37,7.45a8.27,8.27,0,0,0,.53,9.19c.29.36.8-.16.51-.51-2.16-2.61-1.72-6.28,0-9,1.83-2.92,4.81-4.8,7.72-6.51l-.54-.31c-.16,1.85-1.6,3.14-2.94,4.26a15,15,0,0,0-3.16,3.34,11.78,11.78,0,0,0-1.61,8.37c.08.45.78.26.7-.19Z"/><path class="cls-2" d="M183.75,72.55c4.89-2.55,10.63.19,15.72-1.59l-.35-.6a15.41,15.41,0,0,1-15.8,1.9c-.42-.19-.79.43-.37.62a16.17,16.17,0,0,0,16.68-2c.28-.23,0-.72-.35-.61-5.16,1.81-10.89-.94-15.89,1.67-.41.21,0,.83.36.62Z"/><path class="cls-2" d="M170.43,75.5c7.63,3,15.91,10.12,24.47,5.9a.36.36,0,0,0,0-.62,27.83,27.83,0,0,0-6.9-2.51c-.45-.1-.65.6-.19.7a27,27,0,0,1,6.73,2.43v-.62c-8.27,4.07-16.55-3.12-23.92-6-.43-.16-.62.53-.19.7Z"/></g></g></svg>